# xmcd
#
# Track frame offsets:
# 150
# 20095
# 33224
# 48800
# 60232
# 68549
# 86768
# 97922
# 113504
# 124933
# 138511
# 150067
# 159246
# 173645
# 182740
#
# Disc length: 2560 seconds
#
#
# Revision: 1
# Processed by: cddbd v1.5.2PL0 Copyright (c) Steve Scherf et al.
# Submitted via: MfcCDDB 1.28 
#
DISCID=a709fe0f
DTITLE=Various Artist - Feito para dancar
DYEAR=2000
DGENRE=Country
TTITLE0=FPDancar
TTITLE1=FPDancar
TTITLE2=FPDancar
TTITLE3=FPDancar
TTITLE4=FPDancar
TTITLE5=FPDancar
TTITLE6=FPDancar
TTITLE7=FPDancar
TTITLE8=FPDancar
TTITLE9=FPDancar
TTITLE10=FPDancar
TTITLE11=FPDancar
TTITLE12=FPDancar
TTITLE13=FPDancar
TTITLE14=FPDancar
EXTD=
EXTT0=
EXTT1=
EXTT2=
EXTT3=
EXTT4=
EXTT5=
EXTT6=
EXTT7=
EXTT8=
EXTT9=
EXTT10=
EXTT11=
EXTT12=
EXTT13=
EXTT14=
PLAYORDER=
